<svg xmlns="http://www.w3.org/2000/svg" xmlns:xlink="http://www.w3.org/1999/xlink" width="500" zoomAndPan="magnify" viewBox="0 0 375 374.999991" height="500" preserveAspectRatio="xMidYMid meet" version="1.0"><defs><clipPath id="c259f893cf"><path d="M 70.230469 70.230469 L 304.980469 70.230469 L 304.980469 304.980469 L 70.230469 304.980469 Z M 70.230469 70.230469 " clip-rule="nonzero"/></clipPath><clipPath id="2a6bddec48"><path d="M 158 148 L 304.980469 148 L 304.980469 304.980469 L 158 304.980469 Z M 158 148 " clip-rule="nonzero"/></clipPath></defs><rect x="-37.5" width="450" fill="#ffffff" y="-37.499999" height="449.999989" fill-opacity="1"/><rect x="-37.5" width="450" fill="#ffffff" y="-37.499999" height="449.999989" fill-opacity="1"/><g clip-path="url(#c259f893cf)"><path fill="#000000" d="M 280.527344 70.230469 C 268.683594 70.230469 258.816406 78.648438 256.5625 89.832031 L 210.023438 94.734375 C 206.253906 86.078125 197.65625 80.011719 187.605469 80.011719 C 177.558594 80.011719 168.957031 86.078125 165.191406 94.734375 L 118.648438 89.832031 C 116.394531 78.648438 106.527344 70.230469 94.6875 70.230469 C 81.175781 70.230469 70.230469 81.175781 70.230469 94.683594 C 70.230469 107.367188 79.921875 117.675781 92.285156 118.898438 L 102.285156 166.398438 C 94.863281 170.59375 89.792969 178.460938 89.792969 187.605469 C 89.792969 196.75 94.863281 204.621094 102.285156 208.8125 L 92.285156 256.3125 C 79.921875 257.535156 70.230469 267.84375 70.230469 280.527344 C 70.230469 294.035156 81.175781 304.980469 94.6875 304.980469 C 105.617188 304.980469 114.761719 297.757812 117.898438 287.863281 L 163.152344 287.863281 L 163.152344 273.191406 L 117.898438 273.191406 C 116.011719 267.25 111.976562 262.339844 106.640625 259.320312 L 116.640625 211.820312 C 122.285156 211.257812 127.367188 208.890625 131.222656 205.164062 L 156.039062 218.621094 L 163.066406 205.734375 L 138.230469 192.265625 C 138.527344 190.753906 138.703125 189.199219 138.703125 187.601562 C 138.703125 182.988281 137.34375 178.71875 135.121094 175.03125 L 177.691406 126.777344 C 180.726562 128.136719 184.074219 128.917969 187.605469 128.917969 C 187.96875 128.917969 188.292969 128.832031 188.644531 128.8125 L 195.429688 147.457031 L 208.382812 140.128906 L 202.441406 123.789062 C 207.027344 120.257812 210.378906 115.210938 211.570312 109.316406 L 258.117188 104.417969 C 259.796875 108.285156 262.492188 111.570312 265.808594 114.09375 L 257.945312 136.101562 L 271.929688 140.570312 L 279.609375 119.039062 C 279.925781 119.058594 280.210938 119.136719 280.527344 119.136719 C 294.035156 119.136719 304.980469 108.191406 304.980469 94.679688 C 304.980469 81.175781 294.035156 70.230469 280.527344 70.230469 Z M 116.640625 163.390625 L 106.640625 115.890625 C 111.25 113.28125 114.972656 109.3125 117.09375 104.417969 L 163.636719 109.320312 C 164.203125 112.105469 165.300781 114.679688 166.726562 117.035156 L 124.15625 165.285156 C 121.828125 164.25 119.289062 163.660156 116.640625 163.390625 Z M 116.640625 163.390625 " fill-opacity="1" fill-rule="nonzero"/></g><g clip-path="url(#2a6bddec48)"><path fill="#000000" d="M 288.683594 304.980469 L 288.683594 256.609375 C 298.839844 243.207031 304.980469 226.628906 304.980469 208.503906 C 304.980469 175.359375 275.089844 148.480469 238.296875 148.480469 C 205.132812 148.480469 178.261719 175.359375 178.261719 208.503906 L 158.261719 245.183594 L 158.261719 248.519531 C 158.261719 250.363281 159.738281 252.148438 161.535156 252.511719 L 174.9375 255.183594 L 177.246094 275.292969 C 178.089844 282.570312 184.785156 288.542969 192.109375 288.542969 L 221.839844 288.542969 L 227.324219 304.980469 Z M 288.683594 304.980469 " fill-opacity="1" fill-rule="nonzero"/></g></svg>